<svg width="193" height="148" viewBox="0 0 193 148" fill="none" xmlns="http://www.w3.org/2000/svg">
<path d="M54.25 114.75C53 114.917 51.7917 115.125 50.625 115.375C49.5417 115.625 48.4167 115.917 47.25 116.25C46.75 116.417 46.25 116.542 45.75 116.625C45.25 116.708 44.7083 116.833 44.125 117C42.625 116.667 41.1667 116.417 39.75 116.25C38.4167 116.083 37.2083 116 36.125 116L34.25 115.5C33.25 115.167 32.5 114.917 32 114.75C31.5 114.5 31 114.333 30.5 114.25C30.0833 114.083 29.5417 113.958 28.875 113.875C28.2917 113.792 27.4167 113.667 26.25 113.5C24.8333 114.083 23.4583 114.375 22.125 114.375C21.2083 114.375 20.25 114.25 19.25 114C18.25 113.667 17.25 113.083 16.25 112.25C15.25 111.333 14.2917 110.125 13.375 108.625C12.4583 107.042 11.6667 105.042 11 102.625C11.25 100.708 11.5417 99.0417 11.875 97.625C12.2083 96.2083 12.5417 95.0833 12.875 94.25L13.875 93.125C15.375 92.5417 17.0833 92.25 19 92.25C20.8333 92.25 22.625 92.5417 24.375 93.125C26.125 93.7083 27.875 94.3333 29.625 95C30.375 95.3333 30.9167 95.5833 31.25 95.75C31.5833 95.9167 31.8333 96.0417 32 96.125C32.1667 96.2083 32.375 96.25 32.625 96.25C32.9583 96.25 33.5 96.25 34.25 96.25C34.6667 96.25 35.0417 96.25 35.375 96.25C35.7917 96.1667 36.2083 96.0833 36.625 96L38.125 96.125C38.7083 96.4583 39.4167 96.625 40.25 96.625C40.8333 96.625 41.4167 96.5417 42 96.375C42.6667 96.2083 43.3333 96.0417 44 95.875C44.6667 95.625 45.25 95.4583 45.75 95.375C46.25 95.2917 46.7083 95.1667 47.125 95L48.375 93.875C49.2083 93.5417 49.8333 93.1667 50.25 92.75C50.75 92.3333 51.1667 91.875 51.5 91.375C51.8333 90.7917 52.125 90.2083 52.375 89.625C52.7083 89.0417 53.125 88.4167 53.625 87.75C54.0417 87.25 54.4167 86.75 54.75 86.25C55.1667 85.75 55.5833 85.2917 56 84.875V83.625C57.3333 80.5417 58.5 77.4167 59.5 74.25C60.5 71.0833 61.375 67.9167 62.125 64.75C62.875 61.5833 63.5 58.5 64 55.5C64.5833 52.5 65.0833 49.7917 65.5 47.375C65.25 47.375 65 47.375 64.75 47.375C64.5 47.2917 64.2917 47.25 64.125 47.25C61.625 47.25 59.5833 47.2917 58 47.375C56.4167 47.4583 54.9583 47.5833 53.625 47.75C52.2917 47.9167 50.875 48.1667 49.375 48.5C47.9583 48.75 46.125 49.0833 43.875 49.5L41.75 49.875C40.1667 50.625 38.625 51.3333 37.125 52C35.7083 52.5833 34.2083 52.875 32.625 52.875C30.125 52.875 27.9583 51.875 26.125 49.875C24.2083 48.7083 23.125 47.0417 22.875 44.875C22.4583 44.125 22.2917 43.4167 22.375 42.75C22.0417 41.5833 21.8333 40.5417 21.75 39.625C21.75 38.625 21.75 37.7083 21.75 36.875L21.875 34.75H23.75C24.25 34.25 24.5833 33.875 24.75 33.625C25 33.375 25.1667 33.0833 25.25 32.75L25.625 31.5L26.875 31.375C28.625 31.125 30.4167 30.8333 32.25 30.5C34.0833 30.1667 35.9583 29.7917 37.875 29.375C39.7917 29.0417 41.4167 28.75 42.75 28.5C44.1667 28.25 45.5 28.0833 46.75 28C48 27.8333 49.2917 27.75 50.625 27.75C51.9583 27.6667 53.5 27.625 55.25 27.625C55.9167 27.625 56.5 27.6667 57 27.75C57.5833 27.75 58.1667 27.75 58.75 27.75C59.0833 27.3333 59.4167 27.0833 59.75 27C60.0833 26.9167 60.3333 26.875 60.5 26.875C61.0833 26.9583 61.5 27.0417 61.75 27.125C62.0833 27.2083 62.3333 27.2917 62.5 27.375C65.3333 26.875 67.9167 26.5833 70.25 26.5C72.6667 26.3333 74.8333 26.25 76.75 26.25C77.6667 26.25 78.5833 26.25 79.5 26.25C80.4167 26.25 81.2917 26.2917 82.125 26.375H90.25C90.6667 26.2917 91.0417 26.25 91.375 26.25C91.7917 26.25 92.2083 26.25 92.625 26.25C93.4583 26.25 94.0833 26.25 94.5 26.25C95 26.25 95.4167 26.2917 95.75 26.375C96.0833 26.375 96.4167 26.4167 96.75 26.5C97.0833 26.5 97.5417 26.5417 98.125 26.625C99.5417 26.875 100.833 27.0833 102 27.25C103.167 27.4167 104.333 27.5 105.5 27.5L107.875 27.375L108.25 28.875L109.375 30.5C109.625 31 109.958 31.4583 110.375 31.875C110.792 32.2917 111.25 32.7083 111.75 33.125C112.75 34.0417 113.708 35.2083 114.625 36.625C115.625 37.9583 116 39.9167 115.75 42.5L114.625 44C114.292 44.1667 113.958 44.375 113.625 44.625C113.375 44.875 113.083 45.1667 112.75 45.5L111.5 46.625C110.417 46.7083 109.5 46.7917 108.75 46.875C108 46.875 107.167 46.875 106.25 46.875C104.75 46.875 103.208 46.8333 101.625 46.75C100.125 46.6667 98.5417 46.5833 96.875 46.5C95.9583 46.4167 95.25 46.375 94.75 46.375C94.25 46.375 93.7917 46.375 93.375 46.375C92.9583 46.375 92.4583 46.4167 91.875 46.5C91.375 46.5 90.7083 46.5 89.875 46.5C89.0417 46.5 88.4167 46.5 88 46.5C87.6667 46.5 87.1667 46.5417 86.5 46.625C86.3333 49.2917 86 51.625 85.5 53.625C85.0833 55.5417 84.5417 57.5833 83.875 59.75C82.2917 67.9167 80.3333 75.625 78 82.875C75.75 90.125 73.2083 96.6667 70.375 102.5C67.7083 105.333 65.1667 107.875 62.75 110.125C60.3333 112.292 57.625 113.833 54.625 114.75H54.25Z" fill="white"/>
<path d="M97.25 134.25C99.1667 134.417 100.542 134.708 101.375 135.125C102.292 135.542 102.917 136.083 103.25 136.75C103.583 137.333 103.708 138 103.625 138.75C103.542 139.5 103.5 140.25 103.5 141C101.333 141.917 98.5833 142.625 95.25 143.125C92 143.625 88.4167 144 84.5 144.25C80.5833 144.5 76.5 144.625 72.25 144.625C68 144.708 63.875 144.75 59.875 144.75C55.875 144.75 52.1667 144.75 48.75 144.75C45.3333 144.75 42.5 144.792 40.25 144.875C33.3333 145.292 27.9583 145.708 24.125 146.125C20.2917 146.542 17.6667 146.958 16.25 147.375C13.75 147.292 11.7917 147 10.375 146.5C8.875 146 7.66667 145.375 6.75 144.625C5.83333 143.875 5.04167 143.042 4.375 142.125C3.70833 141.125 2.91667 140.125 2 139.125C2.5 138.458 2.625 137.5 2.375 136.25C2.04167 135 1.25 134.083 0 133.5C1 133.333 1.75 132.833 2.25 132C2.75 131.167 2.79167 130.542 2.375 130.125C4.45833 129.792 6.70833 129.583 9.125 129.5C11.4583 129.417 13.7917 129.375 16.125 129.375C18.4583 129.292 20.6667 129.167 22.75 129C24.8333 128.75 26.6667 128.375 28.25 127.875C34.6667 127.875 41.375 127.875 48.375 127.875C55.375 127.792 61.9167 127.667 68 127.5C70.1667 127.917 72.7083 128.167 75.625 128.25C78.625 128.333 81.5417 128.542 84.375 128.875C87.2917 129.125 89.9167 129.625 92.25 130.375C94.6667 131.125 96.3333 132.417 97.25 134.25Z" fill="#10B981"/>
<path d="M87.5 88.75C86.8333 88.0833 86.3333 87.2917 86 86.375C85.75 85.4583 85.0833 84.7083 84 84.125C83.8333 82.875 83.5833 81.4583 83.25 79.875C83 78.2083 82.7083 76.5417 82.375 74.875C82.125 73.125 81.9167 71.4167 81.75 69.75C81.6667 68 81.75 66.4167 82 65C82.1667 64.25 82.4167 63.5417 82.75 62.875C83.1667 62.2083 83.5417 61.5833 83.875 61C84.2917 60.3333 84.5833 59.6667 84.75 59C85 58.3333 85.0417 57.6667 84.875 57C85.375 56.9167 85.6667 56.6667 85.75 56.25C85.9167 55.75 86.3333 55.5833 87 55.75C87.5833 53.9167 88.2083 52.2083 88.875 50.625C89.5417 49.0417 90.25 47.5 91 46C91.75 44.5 92.5 43 93.25 41.5C94.0833 39.9167 94.8333 38.1667 95.5 36.25C94.0833 34.9167 93.0417 33.5 92.375 32C91.7917 30.4167 91.3333 28.8333 91 27.25C90.6667 25.6667 90.4167 24.0833 90.25 22.5C90.0833 20.8333 89.75 19.1667 89.25 17.5C90.25 16 91.4583 14.7917 92.875 13.875C94.2917 12.875 95.8333 12.0833 97.5 11.5C99.25 10.8333 101.125 10.3333 103.125 10C105.125 9.58333 107.25 9.125 109.5 8.625C113.5 7.375 117.083 6.41667 120.25 5.75C123.417 5 126.5 4.41667 129.5 4C132.5 3.5 135.625 3.08333 138.875 2.75C142.125 2.33333 145.875 1.75 150.125 1C150.208 1.25 150.333 1.375 150.5 1.375C150.75 1.375 151.042 1.375 151.375 1.375C151.625 1.95833 152.083 2.25 152.75 2.25C152.75 2 152.708 1.79167 152.625 1.625C152.625 1.375 152.625 1.16667 152.625 1C152.792 1 153 1.04167 153.25 1.125C153.583 1.20833 153.833 1.29167 154 1.375C154.25 1.45833 154.458 1.45833 154.625 1.375C154.792 1.20833 154.833 0.916667 154.75 0.5C155.75 2.25 157.042 3.70833 158.625 4.875C160.208 5.95833 161.958 6.91667 163.875 7.75C163.958 8.5 163.958 9.04167 163.875 9.375C163.875 9.70833 163.833 10.0417 163.75 10.375C163.667 10.625 163.625 10.9583 163.625 11.375C163.625 11.7083 163.708 12.2083 163.875 12.875C162.542 15.125 161 16.875 159.25 18.125C157.583 19.375 155.792 20.3333 153.875 21C151.958 21.6667 149.917 22.1667 147.75 22.5C145.667 22.8333 143.5 23.2083 141.25 23.625C139.083 23.9583 136.875 24.4583 134.625 25.125C132.375 25.7917 130.167 26.7917 128 28.125C127.333 27.875 126.708 27.7917 126.125 27.875C125.625 27.875 125.083 27.9583 124.5 28.125C123.917 28.2917 123.25 28.4583 122.5 28.625C121.833 28.7917 121 28.7917 120 28.625C119.333 29.2083 118.542 29.625 117.625 29.875C116.792 30.125 115.917 30.375 115 30.625C115.417 31.5417 115.583 32.4583 115.5 33.375C115.5 34.2917 115.625 35.0833 115.875 35.75C119.375 36.0833 123.25 36.0833 127.5 35.75C131.75 35.3333 135.917 35.0417 140 34.875C140.083 35.2917 140.042 35.5833 139.875 35.75C139.708 35.9167 139.625 36.2083 139.625 36.625C140.375 37.125 141.083 37.75 141.75 38.5C142.417 39.25 143.083 40 143.75 40.75C144.5 41.4167 145.25 42 146 42.5C146.75 42.9167 147.625 43.0833 148.625 43C149.042 43.8333 149.333 44.7083 149.5 45.625C149.667 46.5417 149.542 47.5 149.125 48.5C147.458 49.5833 145.833 50.7083 144.25 51.875C142.667 52.9583 141 53.9583 139.25 54.875C137.583 55.7917 135.75 56.5417 133.75 57.125C131.75 57.7083 129.583 57.9583 127.25 57.875C126.833 57.875 126.458 57.875 126.125 57.875C125.875 57.875 125.542 57.7083 125.125 57.375C124.292 57.7917 123.167 57.9583 121.75 57.875C120.417 57.7083 119.292 57.8333 118.375 58.25C117.208 57.8333 115.833 57.625 114.25 57.625C112.75 57.625 111.417 57.4167 110.25 57C108.75 59.1667 107.333 61.4583 106 63.875C104.667 66.2083 103.5 68.7083 102.5 71.375C105.917 71.875 108.75 72.0833 111 72C113.25 71.9167 115.375 71.75 117.375 71.5C119.375 71.25 121.417 71 123.5 70.75C125.667 70.5 128.292 70.4167 131.375 70.5C133.458 69.5 135.833 68.8333 138.5 68.5C141.25 68.0833 143.792 67.5 146.125 66.75C146.958 67 147.667 67.5 148.25 68.25C148.833 68.9167 149.375 69.625 149.875 70.375C150.458 71.0417 151.042 71.625 151.625 72.125C152.208 72.625 152.958 72.7917 153.875 72.625C154.292 73.0417 154.542 73.5417 154.625 74.125C154.792 74.7083 154.917 75.25 155 75.75C155.167 76.25 155.375 76.6667 155.625 77C155.875 77.25 156.333 77.3333 157 77.25C155.417 80.5 153.625 83 151.625 84.75C149.708 86.5 147.5 87.875 145 88.875C142.583 89.7917 139.833 90.5 136.75 91C133.75 91.4167 130.375 91.9583 126.625 92.625C125.708 92.7917 124.917 92.7917 124.25 92.625C123.667 92.375 123.042 92.25 122.375 92.25C120.042 92.6667 117.25 93.0833 114 93.5C110.833 93.9167 107.625 94.0833 104.375 94C101.125 93.9167 98 93.5 95 92.75C92 92 89.5 90.6667 87.5 88.75Z" fill="white"/>
<path d="M112.125 107.75C112.208 107.417 112.375 107.292 112.625 107.375C112.958 107.375 113.25 107.333 113.5 107.25C112.833 106.583 112.417 105.708 112.25 104.625C112.083 103.458 111.667 102.5 111 101.75C111.167 101.333 111.292 100.917 111.375 100.5C111.542 100.083 111.917 99.9167 112.5 100C112.25 98.1667 112.292 96.4583 112.625 94.875C112.958 93.2917 113.458 91.7917 114.125 90.375C114.875 88.9583 115.708 87.5833 116.625 86.25C117.625 84.8333 118.583 83.4167 119.5 82C120.25 81.8333 120.708 81.9167 120.875 82.25C121.042 82.5 121.333 82.4167 121.75 82C123.083 81.0833 124 80.0833 124.5 79C125 77.8333 125.25 76.5833 125.25 75.25C126 73.0833 126.833 70.9583 127.75 68.875C128.75 66.7083 129.875 64.7083 131.125 62.875C132.375 61.0417 133.708 59.4583 135.125 58.125C136.542 56.7083 138.083 55.625 139.75 54.875C140.917 53.875 142.375 52.9583 144.125 52.125C145.958 51.2917 147.875 50.6667 149.875 50.25C151.958 49.75 154.083 49.5 156.25 49.5C158.417 49.4167 160.417 49.625 162.25 50.125C162.667 50.2917 162.917 50.2083 163 49.875C163.083 49.4583 163.292 49.25 163.625 49.25C167.792 49.75 171.5 50.5833 174.75 51.75C178.083 52.9167 180.917 54.5417 183.25 56.625C184.833 59.125 186.333 61.8333 187.75 64.75C189.167 67.5833 190.25 70.5833 191 73.75C191.833 76.8333 192.208 80.0417 192.125 83.375C192.042 86.7083 191.333 90.0417 190 93.375C187.083 97.0417 183.542 100 179.375 102.25C175.208 104.417 170.708 106.25 165.875 107.75C161.125 109.167 156.167 110.333 151 111.25C145.917 112.167 140.958 113.167 136.125 114.25C136.208 116.5 136.208 118.917 136.125 121.5C136.042 124 135.75 126.542 135.25 129.125C134.833 131.625 134.167 134.083 133.25 136.5C132.417 138.917 131.25 141.167 129.75 143.25C128.083 143.167 126.333 143.333 124.5 143.75C122.75 144.167 121.167 144.583 119.75 145C119.083 144.583 118.417 144.167 117.75 143.75C117.167 143.417 116.417 143.208 115.5 143.125C115.75 142.125 115.5 141.083 114.75 140C114.083 138.917 113.375 137.875 112.625 136.875C111.958 135.792 111.5 134.75 111.25 133.75C111.083 132.667 111.583 131.708 112.75 130.875C112.083 130.292 111.75 129.375 111.75 128.125C112.083 128.458 112.5 128.625 113 128.625C112.833 127.125 113 125.333 113.5 123.25C114.083 121.167 114.542 119.125 114.875 117.125C115.292 115.042 115.375 113.167 115.125 111.5C114.875 109.75 113.875 108.5 112.125 107.75ZM144.625 78.5C144.292 79.4167 144 80.25 143.75 81C143.583 81.6667 143.375 82.2917 143.125 82.875C142.875 83.4583 142.583 84.0417 142.25 84.625C142 85.2083 141.708 85.875 141.375 86.625C141.542 87.125 141.875 87.5 142.375 87.75C142.875 88 143.208 88.375 143.375 88.875C144.542 88.2917 145.708 87.875 146.875 87.625C148.042 87.2917 149.208 87.0417 150.375 86.875C151.542 86.7083 152.708 86.5 153.875 86.25C155.042 86 156.25 85.5833 157.5 85C158.75 84.4167 160.042 83.9583 161.375 83.625C162.792 83.2083 164.167 82.7917 165.5 82.375C166.833 81.9583 168.125 81.5 169.375 81C170.625 80.4167 171.708 79.6667 172.625 78.75C171.458 77.6667 169.708 76.7083 167.375 75.875C165.042 75.0417 162.5 74.5417 159.75 74.375C157.083 74.125 154.375 74.2917 151.625 74.875C148.958 75.4583 146.625 76.6667 144.625 78.5Z" fill="white"/>
</svg>
